<?xml version="1.0" encoding="UTF-8"?>
<svg width="28px" height="30px" viewBox="0 0 28 30" version="1.1" xmlns="http://www.w3.org/2000/svg" xmlns:xlink="http://www.w3.org/1999/xlink">
    <!-- Generator: Sketch 48.1 (47250) - http://www.bohemiancoding.com/sketch -->
    <title>shopping-cart</title>
    <desc>Created with Sketch.</desc>
    <defs></defs>
    <g id="Header" stroke="none" stroke-width="1" fill="none" fill-rule="evenodd" transform="translate(-327.000000, -18.000000)">
        <g id="shopping-cart" transform="translate(327.000000, 18.000000)" fill="#000000" fill-rule="nonzero">
            <path d="M7.97777483,19.7352567 L24.5490773,19.7352567 C26.428106,19.7352567 27.9609978,18.2075359 27.9609978,16.334846 L27.9609978,9.3861807 C27.9609978,9.38002053 27.9609978,9.36770021 27.9609978,9.36154004 C27.9609978,9.34305955 27.9609978,9.33073922 27.9609978,9.31225873 C27.9609978,9.2999384 27.9609978,9.28761807 27.9548168,9.27529774 C27.9548168,9.26297741 27.9486358,9.24449692 27.9486358,9.23217659 C27.9486358,9.21985626 27.9424547,9.20753593 27.9424547,9.19521561 C27.9362737,9.18289528 27.9362737,9.17057495 27.9300927,9.15209446 C27.9239117,9.13977413 27.9239117,9.1274538 27.9177307,9.11513347 C27.9115497,9.10281314 27.9115497,9.09049281 27.9053687,9.07817248 C27.8991876,9.06585216 27.8930066,9.05353183 27.8868256,9.03505133 C27.8806446,9.02273101 27.8744636,9.01041068 27.8682826,9.00425051 C27.8621015,8.99193018 27.8559205,8.97960986 27.8497395,8.96728953 C27.8435585,8.9549692 27.8373775,8.94880903 27.8311965,8.93648871 C27.8250155,8.92416838 27.8126534,8.91184805 27.8064724,8.89952772 C27.8002914,8.88720739 27.7941104,8.88104723 27.7817483,8.8687269 C27.7755673,8.85640657 27.7632053,8.85024641 27.7570243,8.83792608 C27.7508433,8.82560575 27.7384812,8.81944559 27.7323002,8.80712526 C27.7261192,8.79480493 27.7137572,8.78864476 27.7075762,8.7824846 C27.6952141,8.77016427 27.6890331,8.76400411 27.6766711,8.75168378 C27.6643091,8.74552361 27.658128,8.73320329 27.645766,8.72704312 C27.633404,8.72088296 27.6210419,8.70856263 27.6086799,8.70240246 C27.5963179,8.6962423 27.5901369,8.69008214 27.5777748,8.68392197 C27.5654128,8.67776181 27.5530508,8.67160164 27.5406887,8.65928131 C27.5283267,8.65312115 27.5159647,8.64696099 27.5036026,8.64080082 C27.4912406,8.63464066 27.4788786,8.62848049 27.4665166,8.62232033 C27.4541545,8.61616016 27.4417925,8.61 27.4294305,8.60383984 C27.4170684,8.59767967 27.4047064,8.59767967 27.3923444,8.59151951 C27.3799823,8.58535934 27.3614393,8.57919918 27.3490773,8.57919918 C27.3367152,8.57919918 27.3243532,8.57303901 27.3181722,8.57303901 C27.2996291,8.56687885 27.2872671,8.56687885 27.2687241,8.56687885 C27.262543,8.56687885 27.256362,8.56071869 27.244,8.56071869 L6.24090949,5.67160164 L6.24090949,2.75168378 C6.24090949,2.72088296 6.24090949,2.69008214 6.23472848,2.66544148 C6.23472848,2.65928131 6.23472848,2.65312115 6.22854746,2.64080082 C6.22854746,2.62232033 6.22236645,2.60383984 6.22236645,2.58535934 C6.21618543,2.56687885 6.21618543,2.55455852 6.21000442,2.53607803 C6.21000442,2.5237577 6.2038234,2.51759754 6.2038234,2.50527721 C6.19764238,2.48679671 6.19146137,2.46831622 6.18528035,2.44983573 C6.18528035,2.44367556 6.17909934,2.43135524 6.17909934,2.42519507 C6.17291832,2.40671458 6.16673731,2.39439425 6.15437528,2.37591376 C6.14819426,2.36975359 6.14819426,2.35743326 6.14201325,2.3512731 C6.13583223,2.33895277 6.12965121,2.32663244 6.11728918,2.31431211 C6.11110817,2.30199179 6.10492715,2.29583162 6.09874614,2.28351129 C6.09256512,2.27119097 6.08638411,2.2650308 6.08020309,2.25271047 C6.07402208,2.24039014 6.06166004,2.22806982 6.05547903,2.21574949 C6.04929801,2.20958932 6.043117,2.20342916 6.03693598,2.19726899 C6.02457395,2.18494867 6.01221192,2.17262834 5.99984989,2.16030801 C5.99366887,2.15414784 5.98748786,2.14798768 5.98130684,2.14182752 C5.96894481,2.12950719 5.95658278,2.11718686 5.93803974,2.10486653 C5.93185872,2.09870637 5.91949669,2.0925462 5.91331567,2.08638604 C5.90095364,2.07406571 5.88859161,2.06790554 5.87622958,2.05558522 C5.85768653,2.04326489 5.83914349,2.03094456 5.82678146,2.02478439 C5.82060044,2.01862423 5.81441943,2.01862423 5.80823841,2.01246407 C5.78351435,2.00014374 5.75260927,1.98782341 5.72788521,1.97550308 L1.17247682,0.0658521561 C0.745986755,-0.112792608 0.257686534,0.0843326489 0.0784370861,0.509383984 C-0.100812362,0.934435318 0.0969801325,1.4210883 0.523470199,1.59973306 L4.5658543,3.2999384 L4.5658543,7.06995893 L4.5658543,7.66749487 L4.5658543,12.2506571 L4.5658543,16.3471663 L4.5658543,21.5217043 C4.5658543,23.2465503 5.86386755,24.6757084 7.53892274,24.8913142 C7.23605298,25.3964476 7.05680353,25.9878234 7.05680353,26.6161602 C7.05680353,28.4703696 8.57115232,29.9734497 10.425457,29.9734497 C12.2797616,29.9734497 13.7941104,28.4642094 13.7941104,26.6161602 C13.7941104,26.0001437 13.627223,25.4149281 13.3305342,24.922115 L20.834287,24.922115 C20.5375982,25.4210883 20.3707108,26.0001437 20.3707108,26.6161602 C20.3707108,28.4703696 21.8850596,29.9734497 23.7393642,29.9734497 C25.5936689,29.9734497 27.1080177,28.4642094 27.1080177,26.6161602 C27.1080177,24.7681109 25.5936689,23.2588706 23.7393642,23.2588706 L7.97777483,23.2588706 C7.01353642,23.2588706 6.23472848,22.4765298 6.23472848,21.5217043 L6.23472848,19.2670842 C6.74157174,19.5627721 7.34113024,19.7352567 7.97777483,19.7352567 Z M12.1314172,26.61 C12.1314172,27.546345 11.3649713,28.3040452 10.431638,28.3040452 C9.49830464,28.3040452 8.73185872,27.5401848 8.73185872,26.61 C8.73185872,25.6798152 9.49830464,24.9159548 10.431638,24.9159548 C11.3649713,24.9159548 12.1314172,25.673655 12.1314172,26.61 Z M25.4453245,26.61 C25.4453245,27.546345 24.6788786,28.3040452 23.7455453,28.3040452 C22.8122119,28.3040452 22.045766,27.5401848 22.045766,26.61 C22.045766,25.6798152 22.8122119,24.9159548 23.7455453,24.9159548 C24.6788786,24.9159548 25.4453245,25.673655 25.4453245,26.61 Z M24.5490773,18.0720123 L7.97777483,18.0720123 C7.01353642,18.0720123 6.23472848,17.2896715 6.23472848,16.334846 L6.23472848,12.2383368 L6.23472848,7.65517454 L6.23472848,7.34716632 L26.2921236,10.1007598 L26.2921236,16.3286858 C26.2921236,17.2958316 25.5071347,18.0720123 24.5490773,18.0720123 Z" id="Shape"></path>
        </g>
    </g>
</svg>